<?xml version="1.0" encoding="UTF-8"?>
<svg width="24px" height="24px" viewBox="0 0 24 24" version="1.1" xmlns="http://www.w3.org/2000/svg" xmlns:xlink="http://www.w3.org/1999/xlink">
    <title>align-right</title>
    <g id="align-right" stroke="none" stroke-width="1" fill="none" fill-rule="evenodd">
        <path d="M21,9 C21.5522847,9 22,9.44771525 22,10 C22,10.5128358 21.6139598,10.9355072 21.1166211,10.9932723 L21,11 L7,11 C6.44771525,11 6,10.5522847 6,10 C6,9.48716416 6.38604019,9.06449284 6.88337887,9.00672773 L7,9 L21,9 Z" id="Path" fill="#000000" fill-rule="nonzero"></path>
        <path d="M11,5 C11.5522847,5 12,5.44771525 12,6 C12,6.51283584 11.6139598,6.93550716 11.1166211,6.99327227 L11,7 L3,7 C2.44771525,7 2,6.55228475 2,6 C2,5.48716416 2.38604019,5.06449284 2.88337887,5.00672773 L3,5 L11,5 Z" id="Path" fill="#000000" fill-rule="nonzero"></path>
        <path d="M12,13 C12.5522847,13 13,13.4477153 13,14 C13,14.5128358 12.6139598,14.9355072 12.1166211,14.9932723 L12,15 L7,15 C6.44771525,15 6,14.5522847 6,14 C6,13.4871642 6.38604019,13.0644928 6.88337887,13.0067277 L7,13 L12,13 Z" id="Path" fill="#000000" fill-rule="nonzero"></path>
        <path d="M7,17 C7.55228475,17 8,17.4477153 8,18 C8,18.5128358 7.61395981,18.9355072 7.11662113,18.9932723 L7,19 L3,19 C2.44771525,19 2,18.5522847 2,18 C2,17.4871642 2.38604019,17.0644928 2.88337887,17.0067277 L3,17 L7,17 Z" id="Path" fill="#000000" fill-rule="nonzero"></path>
    </g>
</svg>