<?xml version="1.0" encoding="UTF-8"?>
<svg width="24px" height="24px" viewBox="0 0 24 24" version="1.1" xmlns="http://www.w3.org/2000/svg" xmlns:xlink="http://www.w3.org/1999/xlink">
    <title>cancel</title>
    <g id="cancel" stroke="none" stroke-width="1" fill="none" fill-rule="evenodd">
        <path d="M2.29289322,2.29289322 C2.65337718,1.93240926 3.22060824,1.90467972 3.61289944,2.20970461 L3.70710678,2.29289322 L21.7071068,20.2928932 C22.0976311,20.6834175 22.0976311,21.3165825 21.7071068,21.7071068 C21.3466228,22.0675907 20.7793918,22.0953203 20.3871006,21.7902954 L20.2928932,21.7071068 L2.29289322,3.70710678 C1.90236893,3.31658249 1.90236893,2.68341751 2.29289322,2.29289322 Z" id="Path" fill="#000000" fill-rule="nonzero"></path>
        <path d="M20.2928932,2.29289322 C20.6834175,1.90236893 21.3165825,1.90236893 21.7071068,2.29289322 C22.0675907,2.65337718 22.0953203,3.22060824 21.7902954,3.61289944 L21.7071068,3.70710678 L3.70710678,21.7071068 C3.31658249,22.0976311 2.68341751,22.0976311 2.29289322,21.7071068 C1.93240926,21.3466228 1.90467972,20.7793918 2.20970461,20.3871006 L2.29289322,20.2928932 L20.2928932,2.29289322 Z" id="Path" fill="#000000" fill-rule="nonzero"></path>
    </g>
</svg>