<?xml version="1.0" encoding="UTF-8"?>
<svg width="24px" height="24px" viewBox="0 0 24 24" version="1.1" xmlns="http://www.w3.org/2000/svg" xmlns:xlink="http://www.w3.org/1999/xlink">
    <title>loader</title>
    <g id="loader" stroke="none" stroke-width="1" fill="none" fill-rule="evenodd">
        <path d="M12,1 C12.5128358,1 12.9355072,1.38604019 12.9932723,1.88337887 L13,2 L13,6 C13,6.55228475 12.5522847,7 12,7 C11.4871642,7 11.0644928,6.61395981 11.0067277,6.11662113 L11,6 L11,2 C11,1.44771525 11.4477153,1 12,1 Z" id="Path" fill="#000000" fill-rule="nonzero" opacity="0.2"></path>
        <path d="M12,17 C12.5128358,17 12.9355072,17.3860402 12.9932723,17.8833789 L13,18 L13,22 C13,22.5522847 12.5522847,23 12,23 C11.4871642,23 11.0644928,22.6139598 11.0067277,22.1166211 L11,22 L11,18 C11,17.4477153 11.4477153,17 12,17 Z" id="Path" fill="#000000" fill-rule="nonzero" opacity="0.7"></path>
        <path d="M4.22288322,4.22288322 C4.58336718,3.86239926 5.15059824,3.83466972 5.54288944,4.13969461 L5.63709678,4.22288322 L8.46709678,7.05288322 C8.85762107,7.44340751 8.85762107,8.07657249 8.46709678,8.46709678 C8.10661282,8.82758074 7.53938176,8.85531028 7.14709056,8.55028539 L7.05288322,8.46709678 L4.22288322,5.63709678 C3.83235893,5.24657249 3.83235893,4.61340751 4.22288322,4.22288322 Z" id="Path" fill="#000000" fill-rule="nonzero"></path>
        <path d="M15.5328932,15.5328932 C15.8933772,15.1724093 16.4606082,15.1446797 16.8528994,15.4497046 L16.9471068,15.5328932 L19.7771068,18.3628932 C20.1676311,18.7534175 20.1676311,19.3865825 19.7771068,19.7771068 C19.4166228,20.1375907 18.8493918,20.1653203 18.4571006,19.8602954 L18.3628932,19.7771068 L15.5328932,16.9471068 C15.1423689,16.5565825 15.1423689,15.9234175 15.5328932,15.5328932 Z" id="Path" fill="#000000" fill-rule="nonzero" opacity="0.6"></path>
        <path d="M6,11 C6.55228475,11 7,11.4477153 7,12 C7,12.5128358 6.61395981,12.9355072 6.11662113,12.9932723 L6,13 L2,13 C1.44771525,13 1,12.5522847 1,12 C1,11.4871642 1.38604019,11.0644928 1.88337887,11.0067277 L2,11 L6,11 Z" id="Path" fill="#000000" fill-rule="nonzero" opacity="0.9"></path>
        <path d="M22,11 C22.5522847,11 23,11.4477153 23,12 C23,12.5128358 22.6139598,12.9355072 22.1166211,12.9932723 L22,13 L18,13 C17.4477153,13 17,12.5522847 17,12 C17,11.4871642 17.3860402,11.0644928 17.8833789,11.0067277 L18,11 L22,11 Z" id="Path" fill="#000000" fill-rule="nonzero" opacity="0.4"></path>
        <path d="M7.05288322,15.5328932 C7.44340751,15.1423689 8.07657249,15.1423689 8.46709678,15.5328932 C8.82758074,15.8933772 8.85531028,16.4606082 8.55028539,16.8528994 L8.46709678,16.9471068 L5.63709678,19.7771068 C5.24657249,20.1676311 4.61340751,20.1676311 4.22288322,19.7771068 C3.86239926,19.4166228 3.83466972,18.8493918 4.13969461,18.4571006 L4.22288322,18.3628932 L7.05288322,15.5328932 Z" id="Path" fill="#000000" fill-rule="nonzero" opacity="0.8"></path>
        <path d="M18.3628932,4.22288322 C18.7534175,3.83235893 19.3865825,3.83235893 19.7771068,4.22288322 C20.1375907,4.58336718 20.1653203,5.15059824 19.8602954,5.54288944 L19.7771068,5.63709678 L16.9471068,8.46709678 C16.5565825,8.85762107 15.9234175,8.85762107 15.5328932,8.46709678 C15.1724093,8.10661282 15.1446797,7.53938176 15.4497046,7.14709056 L15.5328932,7.05288322 L18.3628932,4.22288322 Z" id="Path" fill="#000000" fill-rule="nonzero" opacity="0.3"></path>
    </g>
</svg>