<?xml version="1.0" encoding="UTF-8"?>
<svg width="24px" height="24px" viewBox="0 0 24 24" version="1.1" xmlns="http://www.w3.org/2000/svg" xmlns:xlink="http://www.w3.org/1999/xlink">
    <title>logout</title>
    <g id="logout" stroke="none" stroke-width="1" fill="none" fill-rule="evenodd">
        <path d="M9,2 C9.55228475,2 10,2.44771525 10,3 C10,3.51283584 9.61395981,3.93550716 9.11662113,3.99327227 L9,4 L5,4 C4.73478311,4 4.48043341,4.10535516 4.29288735,4.29290621 C4.13661052,4.44917887 4.03740108,4.65185605 4.00867229,4.86855621 L4,5 L4,19 C4,19.2651899 4.10535845,19.5195449 4.29292506,19.7071215 C4.44918651,19.8633954 4.65185278,19.9626007 4.86855402,19.9913281 L5,20 L9,20 C9.55228475,20 10,20.4477153 10,21 C10,21.5128358 9.61395981,21.9355072 9.11662113,21.9932723 L9,22 L5,22 C4.20432902,22 3.44125611,21.6839247 2.87866437,21.1212879 C2.36294942,20.6055455 2.05438973,19.9213988 2.00654447,19.1981284 L2,19 L2,5 C2,4.20434554 2.31607287,3.44127857 2.87867379,2.87869265 C3.39439484,2.36295785 4.07855981,2.05439094 4.80186244,2.00654462 L5,2 L9,2 Z" id="Path" fill="#000000" fill-rule="nonzero"></path>
        <path d="M15.2928932,6.29289322 C15.6533772,5.93240926 16.2206082,5.90467972 16.6128994,6.20970461 L16.7071068,6.29289322 L21.7071068,11.2928932 C22.0675907,11.6533772 22.0953203,12.2206082 21.7902954,12.6128994 L21.7071068,12.7071068 L16.7071068,17.7071068 C16.3165825,18.0976311 15.6834175,18.0976311 15.2928932,17.7071068 C14.9324093,17.3466228 14.9046797,16.7793918 15.2097046,16.3871006 L15.2928932,16.2928932 L19.585,12 L15.2928932,7.70710678 C14.9324093,7.34662282 14.9046797,6.77939176 15.2097046,6.38710056 L15.2928932,6.29289322 Z" id="Path" fill="#000000" fill-rule="nonzero"></path>
        <path d="M21,11 C21.5522847,11 22,11.4477153 22,12 C22,12.5128358 21.6139598,12.9355072 21.1166211,12.9932723 L21,13 L9,13 C8.44771525,13 8,12.5522847 8,12 C8,11.4871642 8.38604019,11.0644928 8.88337887,11.0067277 L9,11 L21,11 Z" id="Path" fill="#000000" fill-rule="nonzero"></path>
    </g>
</svg>