<?xml version="1.0" encoding="UTF-8"?>
<svg width="24px" height="24px" viewBox="0 0 24 24" version="1.1" xmlns="http://www.w3.org/2000/svg" xmlns:xlink="http://www.w3.org/1999/xlink">
    <title>maximize</title>
    <g id="maximize" stroke="none" stroke-width="1" fill="none" fill-rule="evenodd">
        <path d="M21,15 C21.5128358,15 21.9355072,15.3860402 21.9932723,15.8833789 L22,16 L22,19 C22,19.7956333 21.6839313,20.5586823 21.1213068,21.1213068 C20.6055676,21.6370459 19.9214163,21.9456097 19.1981324,21.9934555 L19,22 L16,22 C15.4477153,22 15,21.5522847 15,21 C15,20.4871642 15.3860402,20.0644928 15.8833789,20.0067277 L16,20 L19,20 C19.2651975,20 19.5195395,19.8946469 19.7070932,19.7070932 C19.863388,19.5507984 19.962599,19.3481229 19.9913278,19.1314352 L20,19 L20,16 C20,15.4477153 20.4477153,15 21,15 Z M3,15 C3.51283584,15 3.93550716,15.3860402 3.99327227,15.8833789 L4,16 L4,19 C4,19.2651899 4.10535845,19.5195449 4.29292506,19.7071215 C4.44918651,19.8633954 4.65185278,19.9626007 4.86855402,19.9913281 L5,20 L8,20 C8.55228475,20 9,20.4477153 9,21 C9,21.5128358 8.61395981,21.9355072 8.11662113,21.9932723 L8,22 L5,22 C4.20432902,22 3.44125611,21.6839247 2.87866437,21.1212879 C2.36294942,20.6055455 2.05438973,19.9213988 2.00654447,19.1981284 L2,19 L2,16 C2,15.4477153 2.44771525,15 3,15 Z M8,2 C8.55228475,2 9,2.44771525 9,3 C9,3.51283584 8.61395981,3.93550716 8.11662113,3.99327227 L8,4 L5,4 C4.73478311,4 4.48043341,4.10535516 4.29288735,4.29290621 C4.13661052,4.44917887 4.03740108,4.65185605 4.00867229,4.86855621 L4,5 L4,8 C4,8.55228475 3.55228475,9 3,9 C2.48716416,9 2.06449284,8.61395981 2.00672773,8.11662113 L2,8 L2,5 C2,4.20434554 2.31607287,3.44127857 2.87867379,2.87869265 C3.39439484,2.36295785 4.07855981,2.05439094 4.80186244,2.00654462 L5,2 L8,2 Z M19,2 C19.7956168,2 20.5586598,2.31606625 21.1212785,2.87865494 C21.6370375,3.39437268 21.9456085,4.07854237 21.9934553,4.80185853 L22,5 L22,8 C22,8.55228475 21.5522847,9 21,9 C20.4871642,9 20.0644928,8.61395981 20.0067277,8.11662113 L20,8 L20,5 C20,4.73477548 19.8946502,4.4804388 19.7071121,4.29291563 C19.5508061,4.13661798 19.3481197,4.03740278 19.131433,4.00867265 L19,4 L16,4 C15.4477153,4 15,3.55228475 15,3 C15,2.48716416 15.3860402,2.06449284 15.8833789,2.00672773 L16,2 L19,2 Z" id="Shape" fill="#000000" fill-rule="nonzero"></path>
    </g>
</svg>