<?xml version="1.0" encoding="UTF-8"?>
<svg width="24px" height="24px" viewBox="0 0 24 24" version="1.1" xmlns="http://www.w3.org/2000/svg" xmlns:xlink="http://www.w3.org/1999/xlink">
    <title>meh</title>
    <g id="meh" stroke="none" stroke-width="1" fill="none" fill-rule="evenodd">
        <path d="M12,1 C5.92486525,1 1,5.92486525 1,12 C1,18.0751012 5.92488175,23 12,23 C18.0750847,23 23,18.0750847 23,12 C23,5.92488175 18.0751012,1 12,1 Z M12,3 C16.9705333,3 21,7.02945279 21,12 C21,16.9705153 16.9705153,21 12,21 C7.02945279,21 3,16.9705333 3,12 C3,7.02943475 7.02943475,3 12,3 Z" id="Path" fill="#000000" fill-rule="nonzero"></path>
        <path d="M16,14 C16.5522847,14 17,14.4477153 17,15 C17,15.5128358 16.6139598,15.9355072 16.1166211,15.9932723 L16,16 L8,16 C7.44771525,16 7,15.5522847 7,15 C7,14.4871642 7.38604019,14.0644928 7.88337887,14.0067277 L8,14 L16,14 Z" id="Path" fill="#000000" fill-rule="nonzero"></path>
        <path d="M9.01,8 C9.56228475,8 10.01,8.44771525 10.01,9 C10.01,9.51283584 9.62395981,9.93550716 9.12662113,9.99327227 L9,10 C8.44771525,10 8,9.55228475 8,9 C8,8.48716416 8.38604019,8.06449284 8.88337887,8.00672773 L9.01,8 Z" id="Path" fill="#000000" fill-rule="nonzero"></path>
        <path d="M15.01,8 C15.5622847,8 16.01,8.44771525 16.01,9 C16.01,9.51283584 15.6239598,9.93550716 15.1266211,9.99327227 L15,10 C14.4477153,10 14,9.55228475 14,9 C14,8.48716416 14.3860402,8.06449284 14.8833789,8.00672773 L15.01,8 Z" id="Path" fill="#000000" fill-rule="nonzero"></path>
    </g>
</svg>