<?xml version="1.0" encoding="UTF-8"?>
<svg width="24px" height="24px" viewBox="0 0 24 24" version="1.1" xmlns="http://www.w3.org/2000/svg" xmlns:xlink="http://www.w3.org/1999/xlink">
    <title>minimize</title>
    <g id="minimize" stroke="none" stroke-width="1" fill="none" fill-rule="evenodd">
        <path d="M21,15 C21.5522847,15 22,15.4477153 22,16 C22,16.5128358 21.6139598,16.9355072 21.1166211,16.9932723 L21,17 L18,17 C17.7348025,17 17.4804605,17.1053531 17.2929068,17.2929068 C17.136612,17.4492016 17.037401,17.6518771 17.0086722,17.8685648 L17,18 L17,21 C17,21.5522847 16.5522847,22 16,22 C15.4871642,22 15.0644928,21.6139598 15.0067277,21.1166211 L15,21 L15,18 C15,17.2043667 15.3160687,16.4413177 15.8786932,15.8786932 C16.3944324,15.3629541 17.0785837,15.0543903 17.8018676,15.0065445 L18,15 L21,15 Z M6,15 C6.79567098,15 7.55874389,15.3160753 8.12133563,15.8787121 C8.63705058,16.3944545 8.94561027,17.0786012 8.99345553,17.8018716 L9,18 L9,21 C9,21.5522847 8.55228475,22 8,22 C7.48716416,22 7.06449284,21.6139598 7.00672773,21.1166211 L7,21 L7,18 C7,17.7348101 6.89464155,17.4804551 6.70707494,17.2928785 C6.55081349,17.1366046 6.34814722,17.0373993 6.13144598,17.0086719 L6,17 L3,17 C2.44771525,17 2,16.5522847 2,16 C2,15.4871642 2.38604019,15.0644928 2.88337887,15.0067277 L3,15 L6,15 Z M8,2 C8.51283584,2 8.93550716,2.38604019 8.99327227,2.88337887 L9,3 L9,6 C9,6.79565446 8.68392713,7.55872143 8.12132621,8.12130735 C7.60560516,8.63704215 6.92144019,8.94560906 6.19813756,8.99345538 L6,9 L3,9 C2.44771525,9 2,8.55228475 2,8 C2,7.48716416 2.38604019,7.06449284 2.88337887,7.00672773 L3,7 L6,7 C6.26521689,7 6.51956659,6.89464484 6.70711265,6.70709379 C6.86338948,6.55082113 6.96259892,6.34814395 6.99132771,6.13144379 L7,6 L7,3 C7,2.44771525 7.44771525,2 8,2 Z M16,2 C16.5128358,2 16.9355072,2.38604019 16.9932723,2.88337887 L17,3 L17,6 C17,6.26522452 17.1053498,6.5195612 17.2928879,6.70708437 C17.4491939,6.86338202 17.6518803,6.96259722 17.868567,6.99132735 L18,7 L21,7 C21.5522847,7 22,7.44771525 22,8 C22,8.51283584 21.6139598,8.93550716 21.1166211,8.99327227 L21,9 L18,9 C17.2043832,9 16.4413402,8.68393375 15.8787215,8.12134506 C15.3629625,7.60562732 15.0543915,6.92145763 15.0065447,6.19814147 L15,6 L15,3 C15,2.44771525 15.4477153,2 16,2 Z" id="Shape" fill="#000000" fill-rule="nonzero"></path>
    </g>
</svg>